<?xml version="1.0" encoding="UTF-8" standalone="no"?>
<!DOCTYPE svg PUBLIC "-//W3C//DTD SVG 1.1//EN"
 "http://www.w3.org/Graphics/SVG/1.1/DTD/svg11.dtd">
<!-- Generated by graphviz version 12.2.1 (20241206.2353)
 -->
<!-- Title: UnifiedAIPlatform Pages: 1 -->
<svg width="2769pt" height="1113pt"
 viewBox="0.00 0.00 2769.00 1113.45" xmlns="http://www.w3.org/2000/svg" xmlns:xlink="http://www.w3.org/1999/xlink">
<g id="graph0" class="graph" transform="scale(1 1) rotate(0) translate(4 1109.45)">
<title>UnifiedAIPlatform</title>
<polygon fill="#ffffff" stroke="none" points="-4,4 -4,-1109.45 2765,-1109.45 2765,4 -4,4"/>
<text text-anchor="middle" x="1380.5" y="-1088.15" font-family="Arial" font-size="14.00">Unified AI Development &amp; Orchestration Platform</text>
<g id="clust1" class="cluster">
<title>cluster_frontend</title>
<polygon fill="#e6f3ff" stroke="#e6f3ff" points="1755,-872.5 1755,-993.3 2753,-993.3 2753,-872.5 1755,-872.5"/>
<text text-anchor="middle" x="2254" y="-976" font-family="Arial" font-size="14.00" fill="#333333">Frontend Layer</text>
</g>
<g id="clust2" class="cluster">
<title>cluster_api</title>
<polygon fill="#f0fff0" stroke="#f0fff0" points="1387,-691.7 1387,-993.3 1713,-993.3 1713,-691.7 1387,-691.7"/>
<text text-anchor="middle" x="1550" y="-976" font-family="Arial" font-size="14.00" fill="#333333">API Gateway Layer</text>
</g>
<g id="clust3" class="cluster">
<title>cluster_orchestration</title>
<polygon fill="#fff0f5" stroke="#fff0f5" points="1042,-330.1 1042,-812.5 1379,-812.5 1379,-330.1 1042,-330.1"/>
<text text-anchor="middle" x="1210.5" y="-795.2" font-family="Arial" font-size="14.00" fill="#333333">Orchestration Layer</text>
</g>
<g id="clust4" class="cluster">
<title>cluster_agents</title>
<polygon fill="#fff8dc" stroke="#fff8dc" points="80,-510.9 80,-631.7 772,-631.7 772,-510.9 80,-510.9"/>
<text text-anchor="middle" x="426" y="-614.4" font-family="Arial" font-size="14.00" fill="#333333">Agent Layer</text>
</g>
<g id="clust5" class="cluster">
<title>cluster_devops</title>
<polygon fill="#e6e6fa" stroke="#e6e6fa" points="800,-8 800,-631.7 940,-631.7 940,-8 800,-8"/>
<text text-anchor="middle" x="870" y="-614.4" font-family="Arial" font-size="14.00" fill="#333333">DevOps Layer</text>
</g>
<g id="clust6" class="cluster">
<title>cluster_knowledge</title>
<polygon fill="#fffacd" stroke="#fffacd" points="143,-176.8 143,-450.9 453,-450.9 453,-176.8 143,-176.8"/>
<text text-anchor="middle" x="298" y="-433.6" font-family="Arial" font-size="14.00" fill="#333333">Knowledge Layer</text>
</g>
<g id="clust7" class="cluster">
<title>cluster_external</title>
<polygon fill="#f5f5f5" stroke="#f5f5f5" points="968,-8 968,-128.8 1544,-128.8 1544,-8 968,-8"/>
<text text-anchor="middle" x="1256" y="-111.5" font-family="Arial" font-size="14.00" fill="#333333">External Services</text>
</g>
<!-- dashboard -->
<g id="node1" class="node">
<title>dashboard</title>
<path fill="#a7c7e7" stroke="black" d="M2318.97,-937.8C2318.97,-937.8 2191.03,-937.8 2191.03,-937.8 2185.03,-937.8 2179.03,-931.8 2179.03,-925.8 2179.03,-925.8 2179.03,-892.5 2179.03,-892.5 2179.03,-886.5 2185.03,-880.5 2191.03,-880.5 2191.03,-880.5 2318.97,-880.5 2318.97,-880.5 2324.97,-880.5 2330.97,-886.5 2330.97,-892.5 2330.97,-892.5 2330.97,-925.8 2330.97,-925.8 2330.97,-931.8 2324.97,-937.8 2318.97,-937.8"/>
<text text-anchor="middle" x="2255" y="-912" font-family="Arial" font-size="12.00">Dashboard UI</text>
<text text-anchor="middle" x="2255" y="-897.75" font-family="Arial" font-size="12.00">(React + TypeScript)</text>
</g>
<!-- apiGateway -->
<g id="node6" class="node">
<title>apiGateway</title>
<path fill="#b5e8b5" stroke="black" d="M1693.47,-757C1693.47,-757 1604.53,-757 1604.53,-757 1598.53,-757 1592.53,-751 1592.53,-745 1592.53,-745 1592.53,-711.7 1592.53,-711.7 1592.53,-705.7 1598.53,-699.7 1604.53,-699.7 1604.53,-699.7 1693.47,-699.7 1693.47,-699.7 1699.47,-699.7 1705.47,-705.7 1705.47,-711.7 1705.47,-711.7 1705.47,-745 1705.47,-745 1705.47,-751 1699.47,-757 1693.47,-757"/>
<text text-anchor="middle" x="1649" y="-731.2" font-family="Arial" font-size="12.00">API Gateway</text>
<text text-anchor="middle" x="1649" y="-716.95" font-family="Arial" font-size="12.00">(FastAPI)</text>
</g>
<!-- dashboard&#45;&gt;apiGateway -->
<g id="edge1" class="edge">
<title>dashboard&#45;&gt;apiGateway</title>
<path fill="none" stroke="black" d="M2178.69,-882.24C2162.41,-876.71 2150,-872.5 2150,-872.5 2150,-872.5 1830,-820.5 1830,-820.5 1830,-820.5 1760,-812.5 1760,-812.5 1760,-812.5 1725.64,-786.76 1695.15,-763.92"/>
<polygon fill="black" stroke="black" points="1697.58,-761.37 1687.48,-758.18 1693.39,-766.97 1697.58,-761.37"/>
<text text-anchor="middle" x="2005.34" y="-829" font-family="Arial" font-size="10.00">REST/GraphQL</text>
</g>
<!-- websocketAPI -->
<g id="node7" class="node">
<title>websocketAPI</title>
<path fill="#b5e8b5" stroke="black" d="M1510.6,-930.67C1510.6,-930.67 1407.4,-930.67 1407.4,-930.67 1401.4,-930.67 1395.4,-924.67 1395.4,-918.67 1395.4,-918.67 1395.4,-899.62 1395.4,-899.62 1395.4,-893.62 1401.4,-887.62 1407.4,-887.62 1407.4,-887.62 1510.6,-887.62 1510.6,-887.62 1516.6,-887.62 1522.6,-893.62 1522.6,-899.62 1522.6,-899.62 1522.6,-918.67 1522.6,-918.67 1522.6,-924.67 1516.6,-930.67 1510.6,-930.67"/>
<text text-anchor="middle" x="1459" y="-904.87" font-family="Arial" font-size="12.00">WebSocket API</text>
</g>
<!-- dashboard&#45;&gt;websocketAPI -->
<g id="edge5" class="edge">
<title>dashboard&#45;&gt;websocketAPI</title>
<path fill="none" stroke="black" d="M2218.86,-938.11C2188.49,-962.45 2150,-993.3 2150,-993.3 2150,-993.3 1872,-1000.02 1872,-1000.02 1872,-1000.02 1830,-1000.02 1830,-1000.02 1830,-1000.02 1552,-993.3 1552,-993.3 1552,-993.3 1518.21,-962.73 1491.37,-938.44"/>
<polygon fill="black" stroke="black" points="1493.84,-935.95 1484.07,-931.84 1489.14,-941.14 1493.84,-935.95"/>
<text text-anchor="middle" x="1851" y="-1015.8" font-family="Arial" font-size="10.00">Real&#45;time</text>
<text text-anchor="middle" x="1851" y="-1003.8" font-family="Arial" font-size="10.00">Updates</text>
</g>
<!-- modelConfig -->
<g id="node2" class="node">
<title>modelConfig</title>
<path fill="#a7c7e7" stroke="black" d="M2109.22,-930.67C2109.22,-930.67 1988.78,-930.67 1988.78,-930.67 1982.78,-930.67 1976.78,-924.67 1976.78,-918.67 1976.78,-918.67 1976.78,-899.62 1976.78,-899.62 1976.78,-893.62 1982.78,-887.62 1988.78,-887.62 1988.78,-887.62 2109.22,-887.62 2109.22,-887.62 2115.22,-887.62 2121.22,-893.62 2121.22,-899.62 2121.22,-899.62 2121.22,-918.67 2121.22,-918.67 2121.22,-924.67 2115.22,-930.67 2109.22,-930.67"/>
<text text-anchor="middle" x="2049" y="-904.87" font-family="Arial" font-size="12.00">Model Selection UI</text>
</g>
<!-- modelConfig&#45;&gt;apiGateway -->
<g id="edge2" class="edge">
<title>modelConfig&#45;&gt;apiGateway</title>
<path fill="none" stroke="black" d="M1989.66,-887.21C1967.68,-879.45 1948,-872.5 1948,-872.5 1948,-872.5 1801,-844.5 1801,-844.5 1801,-844.5 1739.54,-797.94 1694.78,-764.03"/>
<polygon fill="black" stroke="black" points="1697.09,-761.39 1687,-758.14 1692.86,-766.97 1697.09,-761.39"/>
</g>
<!-- modelSelector -->
<g id="node10" class="node">
<title>modelSelector</title>
<path fill="#f4c2c2" stroke="black" d="M1174.47,-576.2C1174.47,-576.2 1061.53,-576.2 1061.53,-576.2 1055.53,-576.2 1049.53,-570.2 1049.53,-564.2 1049.53,-564.2 1049.53,-530.9 1049.53,-530.9 1049.53,-524.9 1055.53,-518.9 1061.53,-518.9 1061.53,-518.9 1174.47,-518.9 1174.47,-518.9 1180.47,-518.9 1186.47,-524.9 1186.47,-530.9 1186.47,-530.9 1186.47,-564.2 1186.47,-564.2 1186.47,-570.2 1180.47,-576.2 1174.47,-576.2"/>
<text text-anchor="middle" x="1118" y="-550.4" font-family="Arial" font-size="12.00">Automated Model</text>
<text text-anchor="middle" x="1118" y="-536.15" font-family="Arial" font-size="12.00">Selector</text>
</g>
<!-- modelConfig&#45;&gt;modelSelector -->
<g id="edge38" class="edge">
<title>modelConfig&#45;&gt;modelSelector</title>
<path fill="none" stroke="black" d="M1989.66,-887.21C1967.68,-879.45 1948,-872.5 1948,-872.5 1948,-872.5 1866,-844.5 1866,-844.5 1866,-844.5 1727,-691.7 1727,-691.7 1727,-691.7 1216,-631.7 1216,-631.7 1216,-631.7 1186.18,-606.4 1159.44,-583.71"/>
<polygon fill="black" stroke="black" points="1161.95,-581.25 1152.06,-577.45 1157.42,-586.59 1161.95,-581.25"/>
<text text-anchor="middle" x="1862.23" y="-730.85" font-family="Arial" font-size="10.00">User</text>
<text text-anchor="middle" x="1862.23" y="-718.85" font-family="Arial" font-size="10.00">Preferences</text>
</g>
<!-- taskManager -->
<g id="node3" class="node">
<title>taskManager</title>
<path fill="#a7c7e7" stroke="black" d="M1906.85,-930.67C1906.85,-930.67 1775.15,-930.67 1775.15,-930.67 1769.15,-930.67 1763.15,-924.67 1763.15,-918.67 1763.15,-918.67 1763.15,-899.62 1763.15,-899.62 1763.15,-893.62 1769.15,-887.62 1775.15,-887.62 1775.15,-887.62 1906.85,-887.62 1906.85,-887.62 1912.85,-887.62 1918.85,-893.62 1918.85,-899.62 1918.85,-899.62 1918.85,-918.67 1918.85,-918.67 1918.85,-924.67 1912.85,-930.67 1906.85,-930.67"/>
<text text-anchor="middle" x="1841" y="-904.87" font-family="Arial" font-size="12.00">Task Management UI</text>
</g>
<!-- taskManager&#45;&gt;apiGateway -->
<g id="edge3" class="edge">
<title>taskManager&#45;&gt;apiGateway</title>
<path fill="none" stroke="black" d="M1806.33,-887.13C1775.74,-868.59 1736,-844.5 1736,-844.5 1736,-844.5 1702.42,-800.05 1676.98,-766.39"/>
<polygon fill="black" stroke="black" points="1679.79,-764.3 1670.97,-758.43 1674.21,-768.52 1679.79,-764.3"/>
</g>
<!-- analytics -->
<g id="node4" class="node">
<title>analytics</title>
<path fill="#a7c7e7" stroke="black" d="M2535.35,-930.67C2535.35,-930.67 2400.65,-930.67 2400.65,-930.67 2394.65,-930.67 2388.65,-924.67 2388.65,-918.67 2388.65,-918.67 2388.65,-899.62 2388.65,-899.62 2388.65,-893.62 2394.65,-887.62 2400.65,-887.62 2400.65,-887.62 2535.35,-887.62 2535.35,-887.62 2541.35,-887.62 2547.35,-893.62 2547.35,-899.62 2547.35,-899.62 2547.35,-918.67 2547.35,-918.67 2547.35,-924.67 2541.35,-930.67 2535.35,-930.67"/>
<text text-anchor="middle" x="2468" y="-904.87" font-family="Arial" font-size="12.00">Analytics &amp; Reporting</text>
</g>
<!-- analytics&#45;&gt;apiGateway -->
<g id="edge4" class="edge">
<title>analytics&#45;&gt;apiGateway</title>
<path fill="none" stroke="black" d="M2404.55,-887.21C2381.04,-879.45 2360,-872.5 2360,-872.5 2360,-872.5 2054,-820.5 2054,-820.5 2054,-820.5 1760,-812.5 1760,-812.5 1760,-812.5 1725.64,-786.76 1695.15,-763.92"/>
<polygon fill="black" stroke="black" points="1697.58,-761.37 1687.48,-758.18 1693.39,-766.97 1697.58,-761.37"/>
</g>
<!-- visualization -->
<g id="node5" class="node">
<title>visualization</title>
<path fill="#a7c7e7" stroke="black" d="M2732.97,-937.8C2732.97,-937.8 2617.03,-937.8 2617.03,-937.8 2611.03,-937.8 2605.03,-931.8 2605.03,-925.8 2605.03,-925.8 2605.03,-892.5 2605.03,-892.5 2605.03,-886.5 2611.03,-880.5 2617.03,-880.5 2617.03,-880.5 2732.97,-880.5 2732.97,-880.5 2738.97,-880.5 2744.97,-886.5 2744.97,-892.5 2744.97,-892.5 2744.97,-925.8 2744.97,-925.8 2744.97,-931.8 2738.97,-937.8 2732.97,-937.8"/>
<text text-anchor="middle" x="2675" y="-912" font-family="Arial" font-size="12.00">Knowledge Graph</text>
<text text-anchor="middle" x="2675" y="-897.75" font-family="Arial" font-size="12.00">Visualization</text>
</g>
<!-- visualization&#45;&gt;websocketAPI -->
<g id="edge6" class="edge">
<title>visualization&#45;&gt;websocketAPI</title>
<path fill="none" stroke="black" d="M2640.93,-938.11C2612.29,-962.45 2576,-993.3 2576,-993.3 2576,-993.3 2547,-1011.3 2547,-1011.3 2547,-1011.3 1581,-1011.3 1581,-1011.3 1581,-1011.3 1552,-993.3 1552,-993.3 1552,-993.3 1518.21,-962.73 1491.37,-938.44"/>
<polygon fill="black" stroke="black" points="1493.84,-935.95 1484.07,-931.84 1489.14,-941.14 1493.84,-935.95"/>
</g>
<!-- orchestrator -->
<g id="node9" class="node">
<title>orchestrator</title>
<path fill="#f4c2c2" stroke="black" d="M1160.35,-757C1160.35,-757 1061.65,-757 1061.65,-757 1055.65,-757 1049.65,-751 1049.65,-745 1049.65,-745 1049.65,-711.7 1049.65,-711.7 1049.65,-705.7 1055.65,-699.7 1061.65,-699.7 1061.65,-699.7 1160.35,-699.7 1160.35,-699.7 1166.35,-699.7 1172.35,-705.7 1172.35,-711.7 1172.35,-711.7 1172.35,-745 1172.35,-745 1172.35,-751 1166.35,-757 1160.35,-757"/>
<text text-anchor="middle" x="1111" y="-731.2" font-family="Arial" font-size="12.00">AI Orchestrator</text>
<text text-anchor="middle" x="1111" y="-716.95" font-family="Arial" font-size="12.00">(LangGraph)</text>
</g>
<!-- apiGateway&#45;&gt;orchestrator -->
<g id="edge7" class="edge">
<title>apiGateway&#45;&gt;orchestrator</title>
<path fill="none" stroke="black" d="M1592.07,-728.35C1493.85,-728.35 1292.67,-728.35 1184.19,-728.35"/>
<polygon fill="black" stroke="black" points="1184.23,-724.85 1174.23,-728.35 1184.23,-731.85 1184.23,-724.85"/>
<text text-anchor="middle" x="1382.44" y="-733.85" font-family="Arial" font-size="10.00">Task Submission</text>
</g>
<!-- taskTracker -->
<g id="node11" class="node">
<title>taskTracker</title>
<path fill="#f4c2c2" stroke="black" d="M1358.85,-576.2C1358.85,-576.2 1257.15,-576.2 1257.15,-576.2 1251.15,-576.2 1245.15,-570.2 1245.15,-564.2 1245.15,-564.2 1245.15,-530.9 1245.15,-530.9 1245.15,-524.9 1251.15,-518.9 1257.15,-518.9 1257.15,-518.9 1358.85,-518.9 1358.85,-518.9 1364.85,-518.9 1370.85,-524.9 1370.85,-530.9 1370.85,-530.9 1370.85,-564.2 1370.85,-564.2 1370.85,-570.2 1364.85,-576.2 1358.85,-576.2"/>
<text text-anchor="middle" x="1308" y="-550.4" font-family="Arial" font-size="12.00">Enhanced Task</text>
<text text-anchor="middle" x="1308" y="-536.15" font-family="Arial" font-size="12.00">Tracker (MCP)</text>
</g>
<!-- apiGateway&#45;&gt;taskTracker -->
<g id="edge8" class="edge">
<title>apiGateway&#45;&gt;taskTracker</title>
<path fill="none" stroke="black" d="M1595.34,-699.22C1534.72,-667.43 1436.13,-615.73 1371.67,-581.93"/>
<polygon fill="black" stroke="black" points="1373.45,-578.91 1362.96,-577.37 1370.2,-585.11 1373.45,-578.91"/>
<text text-anchor="middle" x="1545.32" y="-648.2" font-family="Arial" font-size="10.00">Task Status</text>
</g>
<!-- websocketAPI&#45;&gt;orchestrator -->
<g id="edge9" class="edge">
<title>websocketAPI&#45;&gt;orchestrator</title>
<path fill="none" stroke="black" d="M1418.4,-887.29C1358.76,-856.65 1246.86,-799.15 1175.78,-762.64"/>
<polygon fill="black" stroke="black" points="1177.44,-759.55 1166.95,-758.1 1174.25,-765.78 1177.44,-759.55"/>
<text text-anchor="middle" x="1347.4" y="-835" font-family="Arial" font-size="10.00">Real&#45;time</text>
<text text-anchor="middle" x="1347.4" y="-823" font-family="Arial" font-size="10.00">Events</text>
</g>
<!-- authService -->
<g id="node8" class="node">
<title>authService</title>
<path fill="#b5e8b5" stroke="black" d="M1693.47,-937.8C1693.47,-937.8 1592.53,-937.8 1592.53,-937.8 1586.53,-937.8 1580.53,-931.8 1580.53,-925.8 1580.53,-925.8 1580.53,-892.5 1580.53,-892.5 1580.53,-886.5 1586.53,-880.5 1592.53,-880.5 1592.53,-880.5 1693.47,-880.5 1693.47,-880.5 1699.47,-880.5 1705.47,-886.5 1705.47,-892.5 1705.47,-892.5 1705.47,-925.8 1705.47,-925.8 1705.47,-931.8 1699.47,-937.8 1693.47,-937.8"/>
<text text-anchor="middle" x="1643" y="-912" font-family="Arial" font-size="12.00">Authentication</text>
<text text-anchor="middle" x="1643" y="-897.75" font-family="Arial" font-size="12.00">&amp; Authorization</text>
</g>
<!-- authService&#45;&gt;apiGateway -->
<g id="edge10" class="edge">
<title>authService&#45;&gt;apiGateway</title>
<path fill="none" stroke="black" d="M1627.77,-880.05C1618.53,-863 1608.5,-844.5 1608.5,-844.5 1608.5,-844.5 1608.5,-820.5 1608.5,-820.5 1608.5,-820.5 1620.92,-792.55 1632,-767.61"/>
<polygon fill="black" stroke="black" points="1635.15,-769.14 1636.01,-758.58 1628.76,-766.29 1635.15,-769.14"/>
<text text-anchor="middle" x="1633.25" y="-835" font-family="Arial" font-size="10.00">Auth</text>
<text text-anchor="middle" x="1633.25" y="-823" font-family="Arial" font-size="10.00">Middleware</text>
</g>
<!-- orchestrator&#45;&gt;modelSelector -->
<g id="edge11" class="edge">
<title>orchestrator&#45;&gt;modelSelector</title>
<path fill="none" stroke="black" d="M1112.09,-699.41C1113.27,-669.45 1115.14,-621.64 1116.46,-587.89"/>
<polygon fill="black" stroke="black" points="1119.95,-588.23 1116.84,-578.1 1112.95,-587.95 1119.95,-588.23"/>
<text text-anchor="middle" x="1134.54" y="-654.2" font-family="Arial" font-size="10.00">Model</text>
<text text-anchor="middle" x="1134.54" y="-642.2" font-family="Arial" font-size="10.00">Selection</text>
</g>
<!-- orchestrator&#45;&gt;taskTracker -->
<g id="edge13" class="edge">
<title>orchestrator&#45;&gt;taskTracker</title>
<path fill="none" stroke="black" d="M1141.78,-699.41C1176.09,-668.28 1231.64,-617.86 1268.97,-583.97"/>
<polygon fill="black" stroke="black" points="1270.94,-586.92 1275.99,-577.6 1266.23,-581.73 1270.94,-586.92"/>
<text text-anchor="middle" x="1222.34" y="-654.2" font-family="Arial" font-size="10.00">Task</text>
<text text-anchor="middle" x="1222.34" y="-642.2" font-family="Arial" font-size="10.00">Tracking</text>
</g>
<!-- codeAgent -->
<g id="node13" class="node">
<title>codeAgent</title>
<path fill="#ffe4b5" stroke="black" d="M578.35,-576.2C578.35,-576.2 467.65,-576.2 467.65,-576.2 461.65,-576.2 455.65,-570.2 455.65,-564.2 455.65,-564.2 455.65,-530.9 455.65,-530.9 455.65,-524.9 461.65,-518.9 467.65,-518.9 467.65,-518.9 578.35,-518.9 578.35,-518.9 584.35,-518.9 590.35,-524.9 590.35,-530.9 590.35,-530.9 590.35,-564.2 590.35,-564.2 590.35,-570.2 584.35,-576.2 578.35,-576.2"/>
<text text-anchor="middle" x="523" y="-550.4" font-family="Arial" font-size="12.00">Code Generation</text>
<text text-anchor="middle" x="523" y="-536.15" font-family="Arial" font-size="12.00">Agent</text>
</g>
<!-- orchestrator&#45;&gt;codeAgent -->
<g id="edge15" class="edge">
<title>orchestrator&#45;&gt;codeAgent</title>
<path fill="none" stroke="black" d="M1049.3,-719.74C912.4,-702.84 595.25,-663.7 595.25,-663.7 595.25,-663.7 567.6,-619.63 546.51,-586.02"/>
<polygon fill="black" stroke="black" points="549.57,-584.32 541.29,-577.71 543.64,-588.04 549.57,-584.32"/>
<text text-anchor="middle" x="621.12" y="-648.2" font-family="Arial" font-size="10.00">Code Tasks</text>
</g>
<!-- designAgent -->
<g id="node14" class="node">
<title>designAgent</title>
<path fill="#ffe4b5" stroke="black" d="M191.97,-569.07C191.97,-569.07 100.03,-569.07 100.03,-569.07 94.03,-569.07 88.03,-563.07 88.03,-557.07 88.03,-557.07 88.03,-538.02 88.03,-538.02 88.03,-532.02 94.03,-526.02 100.03,-526.02 100.03,-526.02 191.97,-526.02 191.97,-526.02 197.97,-526.02 203.97,-532.02 203.97,-538.02 203.97,-538.02 203.97,-557.07 203.97,-557.07 203.97,-563.07 197.97,-569.07 191.97,-569.07"/>
<text text-anchor="middle" x="146" y="-543.27" font-family="Arial" font-size="12.00">Design Agent</text>
</g>
<!-- orchestrator&#45;&gt;designAgent -->
<g id="edge16" class="edge">
<title>orchestrator&#45;&gt;designAgent</title>
<path fill="none" stroke="black" d="M1049.41,-722.03C872.22,-706.74 373.75,-663.7 373.75,-663.7 373.75,-663.7 233,-631.7 233,-631.7 233,-631.7 201.3,-601.4 176.17,-577.38"/>
<polygon fill="black" stroke="black" points="178.7,-574.96 169.05,-570.58 173.86,-580.02 178.7,-574.96"/>
<text text-anchor="middle" x="403.38" y="-648.2" font-family="Arial" font-size="10.00">Design Tasks</text>
</g>
<!-- testAgent -->
<g id="node15" class="node">
<title>testAgent</title>
<path fill="#ffe4b5" stroke="black" d="M751.98,-569.07C751.98,-569.07 660.02,-569.07 660.02,-569.07 654.02,-569.07 648.02,-563.07 648.02,-557.07 648.02,-557.07 648.02,-538.02 648.02,-538.02 648.02,-532.02 654.02,-526.02 660.02,-526.02 660.02,-526.02 751.98,-526.02 751.98,-526.02 757.98,-526.02 763.98,-532.02 763.98,-538.02 763.98,-538.02 763.98,-557.07 763.98,-557.07 763.98,-563.07 757.98,-569.07 751.98,-569.07"/>
<text text-anchor="middle" x="706" y="-543.27" font-family="Arial" font-size="12.00">Testing Agent</text>
</g>
<!-- orchestrator&#45;&gt;testAgent -->
<g id="edge17" class="edge">
<title>orchestrator&#45;&gt;testAgent</title>
<path fill="none" stroke="black" d="M1049.49,-709.25C955.27,-681.52 786,-631.7 786,-631.7 786,-631.7 757.1,-601.66 734.04,-577.7"/>
<polygon fill="black" stroke="black" points="736.69,-575.4 727.24,-570.62 731.65,-580.26 736.69,-575.4"/>
<text text-anchor="middle" x="914.75" y="-648.2" font-family="Arial" font-size="10.00">Test Tasks</text>
</g>
<!-- securityAgent -->
<g id="node16" class="node">
<title>securityAgent</title>
<path fill="#ffe4b5" stroke="black" d="M385.73,-576.2C385.73,-576.2 274.27,-576.2 274.27,-576.2 268.27,-576.2 262.27,-570.2 262.27,-564.2 262.27,-564.2 262.27,-530.9 262.27,-530.9 262.27,-524.9 268.27,-518.9 274.27,-518.9 274.27,-518.9 385.73,-518.9 385.73,-518.9 391.73,-518.9 397.73,-524.9 397.73,-530.9 397.73,-530.9 397.73,-564.2 397.73,-564.2 397.73,-570.2 391.73,-576.2 385.73,-576.2"/>
<text text-anchor="middle" x="330" y="-550.4" font-family="Arial" font-size="12.00">Security Analysis</text>
<text text-anchor="middle" x="330" y="-536.15" font-family="Arial" font-size="12.00">Agent</text>
</g>
<!-- orchestrator&#45;&gt;securityAgent -->
<g id="edge18" class="edge">
<title>orchestrator&#45;&gt;securityAgent</title>
<path fill="none" stroke="black" d="M1049.31,-720.9C894.61,-704.71 502.5,-663.7 502.5,-663.7 502.5,-663.7 427,-631.7 427,-631.7 427,-631.7 397.48,-606.4 371.01,-583.71"/>
<polygon fill="black" stroke="black" points="373.59,-581.31 363.72,-577.45 369.03,-586.62 373.59,-581.31"/>
<text text-anchor="middle" x="534.75" y="-648.2" font-family="Arial" font-size="10.00">Security Tasks</text>
</g>
<!-- costManager -->
<g id="node12" class="node">
<title>costManager</title>
<path fill="#f4c2c2" stroke="black" d="M1284.35,-395.4C1284.35,-395.4 1167.65,-395.4 1167.65,-395.4 1161.65,-395.4 1155.65,-389.4 1155.65,-383.4 1155.65,-383.4 1155.65,-350.1 1155.65,-350.1 1155.65,-344.1 1161.65,-338.1 1167.65,-338.1 1167.65,-338.1 1284.35,-338.1 1284.35,-338.1 1290.35,-338.1 1296.35,-344.1 1296.35,-350.1 1296.35,-350.1 1296.35,-383.4 1296.35,-383.4 1296.35,-389.4 1290.35,-395.4 1284.35,-395.4"/>
<text text-anchor="middle" x="1226" y="-369.6" font-family="Arial" font-size="12.00">Cost Management</text>
<text text-anchor="middle" x="1226" y="-355.35" font-family="Arial" font-size="12.00">System</text>
</g>
<!-- modelSelector&#45;&gt;costManager -->
<g id="edge12" class="edge">
<title>modelSelector&#45;&gt;costManager</title>
<path fill="none" stroke="black" d="M1109.72,-518.45C1104.7,-501.4 1099.25,-482.9 1099.25,-482.9 1099.25,-482.9 1099.25,-458.9 1099.25,-458.9 1099.25,-458.9 1142.12,-428.07 1178,-402.27"/>
<polygon fill="black" stroke="black" points="1179.63,-405.41 1185.71,-396.73 1175.55,-399.72 1179.63,-405.41"/>
<text text-anchor="middle" x="1126.62" y="-473.4" font-family="Arial" font-size="10.00">Cost</text>
<text text-anchor="middle" x="1126.62" y="-461.4" font-family="Arial" font-size="10.00">Optimization</text>
</g>
<!-- llmProviders -->
<g id="node24" class="node">
<title>llmProviders</title>
<path fill="#dcdcdc" stroke="black" d="M1523.72,-73.3C1523.72,-73.3 1364.28,-73.3 1364.28,-73.3 1358.28,-73.3 1352.28,-67.3 1352.28,-61.3 1352.28,-61.3 1352.28,-28 1352.28,-28 1352.28,-22 1358.28,-16 1364.28,-16 1364.28,-16 1523.72,-16 1523.72,-16 1529.72,-16 1535.72,-22 1535.72,-28 1535.72,-28 1535.72,-61.3 1535.72,-61.3 1535.72,-67.3 1529.72,-73.3 1523.72,-73.3"/>
<text text-anchor="middle" x="1444" y="-47.5" font-family="Arial" font-size="12.00">LLM Providers</text>
<text text-anchor="middle" x="1444" y="-33.25" font-family="Arial" font-size="12.00">(OpenAI, Anthropic, Local)</text>
</g>
<!-- modelSelector&#45;&gt;llmProviders -->
<g id="edge32" class="edge">
<title>modelSelector&#45;&gt;llmProviders</title>
<path fill="none" stroke="black" d="M1186.86,-521.5C1203.21,-515.55 1216,-510.9 1216,-510.9 1216,-510.9 1332,-482.9 1332,-482.9 1332,-482.9 1406.57,-191.77 1434.02,-84.62"/>
<polygon fill="black" stroke="black" points="1437.36,-85.69 1436.45,-75.13 1430.58,-83.95 1437.36,-85.69"/>
<text text-anchor="middle" x="1405.13" y="-286.6" font-family="Arial" font-size="10.00">API Calls</text>
</g>
<!-- modelSelector&#45;&gt;llmProviders -->
<g id="edge37" class="edge">
<title>modelSelector&#45;&gt;llmProviders</title>
<path fill="none" stroke="black" d="M1103.43,-518.45C1094.59,-501.4 1085,-482.9 1085,-482.9 1085,-482.9 1085,-458.9 1085,-458.9 1085,-458.9 1127,-330.1 1127,-330.1 1127,-330.1 1319.33,-157.52 1404.37,-81.21"/>
<polygon fill="black" stroke="black" points="1406.51,-84 1411.61,-74.71 1401.83,-78.79 1406.51,-84"/>
<text text-anchor="middle" x="1215.06" y="-292.6" font-family="Arial" font-size="10.00">Select</text>
<text text-anchor="middle" x="1215.06" y="-280.6" font-family="Arial" font-size="10.00">Optimal Model</text>
</g>
<!-- taskTracker&#45;&gt;dashboard -->
<g id="edge35" class="edge">
<title>taskTracker&#45;&gt;dashboard</title>
<path fill="none" stroke="black" d="M1371.29,-563.8C1524.34,-600.69 1902,-691.7 1902,-691.7 1902,-691.7 2100.28,-813.28 2199.63,-874.2"/>
<polygon fill="black" stroke="black" points="2197.57,-877.04 2207.92,-879.28 2201.23,-871.07 2197.57,-877.04"/>
<text text-anchor="middle" x="2114.5" y="-730.85" font-family="Arial" font-size="10.00">Task</text>
<text text-anchor="middle" x="2114.5" y="-718.85" font-family="Arial" font-size="10.00">Updates</text>
</g>
<!-- taskTracker&#45;&gt;analytics -->
<g id="edge36" class="edge">
<title>taskTracker&#45;&gt;analytics</title>
<path fill="none" stroke="black" d="M1371.06,-559.31C1566.18,-592.6 2147,-691.7 2147,-691.7 2147,-691.7 2341.12,-822.59 2427.45,-880.8"/>
<polygon fill="black" stroke="black" points="2425.43,-883.66 2435.67,-886.35 2429.34,-877.86 2425.43,-883.66"/>
<text text-anchor="middle" x="2337.78" y="-730.85" font-family="Arial" font-size="10.00">Usage</text>
<text text-anchor="middle" x="2337.78" y="-718.85" font-family="Arial" font-size="10.00">Data</text>
</g>
<!-- taskTracker&#45;&gt;costManager -->
<g id="edge14" class="edge">
<title>taskTracker&#45;&gt;costManager</title>
<path fill="none" stroke="black" d="M1298.19,-518.82C1289.11,-493.14 1277,-458.9 1277,-458.9 1277,-458.9 1261.08,-430.45 1247.03,-405.34"/>
<polygon fill="black" stroke="black" points="1250.26,-403.93 1242.32,-396.91 1244.15,-407.35 1250.26,-403.93"/>
<text text-anchor="middle" x="1301.44" y="-473.4" font-family="Arial" font-size="10.00">Usage</text>
<text text-anchor="middle" x="1301.44" y="-461.4" font-family="Arial" font-size="10.00">Metrics</text>
</g>
<!-- costManager&#45;&gt;modelSelector -->
<g id="edge39" class="edge">
<title>costManager&#45;&gt;modelSelector</title>
<path fill="none" stroke="black" d="M1210.99,-395.62C1192.64,-429.7 1164,-482.9 1164,-482.9 1164,-482.9 1155.01,-495.35 1144.97,-509.23"/>
<polygon fill="black" stroke="black" points="1142.22,-507.07 1139.2,-517.22 1147.89,-511.17 1142.22,-507.07"/>
<text text-anchor="middle" x="1200.99" y="-473.4" font-family="Arial" font-size="10.00">Budget</text>
<text text-anchor="middle" x="1200.99" y="-461.4" font-family="Arial" font-size="10.00">Constraints</text>
</g>
<!-- cicdPipeline -->
<g id="node17" class="node">
<title>cicdPipeline</title>
<path fill="#d8bfd8" stroke="black" d="M919.73,-395.4C919.73,-395.4 820.27,-395.4 820.27,-395.4 814.27,-395.4 808.27,-389.4 808.27,-383.4 808.27,-383.4 808.27,-350.1 808.27,-350.1 808.27,-344.1 814.27,-338.1 820.27,-338.1 820.27,-338.1 919.73,-338.1 919.73,-338.1 925.73,-338.1 931.73,-344.1 931.73,-350.1 931.73,-350.1 931.73,-383.4 931.73,-383.4 931.73,-389.4 925.73,-395.4 919.73,-395.4"/>
<text text-anchor="middle" x="870" y="-369.6" font-family="Arial" font-size="12.00">CI/CD Pipeline</text>
<text text-anchor="middle" x="870" y="-355.35" font-family="Arial" font-size="12.00">Generator</text>
</g>
<!-- codeAgent&#45;&gt;cicdPipeline -->
<g id="edge25" class="edge">
<title>codeAgent&#45;&gt;cicdPipeline</title>
<path fill="none" stroke="black" d="M577.6,-518.42C639.29,-486.63 739.61,-434.93 805.21,-401.13"/>
<polygon fill="black" stroke="black" points="806.8,-404.25 814.09,-396.56 803.59,-398.03 806.8,-404.25"/>
<text text-anchor="middle" x="708.6" y="-473.4" font-family="Arial" font-size="10.00">Generated</text>
<text text-anchor="middle" x="708.6" y="-461.4" font-family="Arial" font-size="10.00">Code</text>
</g>
<!-- ragSystem -->
<g id="node22" class="node">
<title>ragSystem</title>
<path fill="#f0e68c" stroke="black" d="M433.1,-388.27C433.1,-388.27 344.9,-388.27 344.9,-388.27 338.9,-388.27 332.9,-382.27 332.9,-376.27 332.9,-376.27 332.9,-357.23 332.9,-357.23 332.9,-351.23 338.9,-345.23 344.9,-345.23 344.9,-345.23 433.1,-345.23 433.1,-345.23 439.1,-345.23 445.1,-351.23 445.1,-357.23 445.1,-357.23 445.1,-376.27 445.1,-376.27 445.1,-382.27 439.1,-388.27 433.1,-388.27"/>
<text text-anchor="middle" x="389" y="-362.48" font-family="Arial" font-size="12.00">RAG System</text>
</g>
<!-- codeAgent&#45;&gt;ragSystem -->
<g id="edge19" class="edge">
<title>codeAgent&#45;&gt;ragSystem</title>
<path fill="none" stroke="black" d="M493.64,-518.45C475.82,-501.4 456.5,-482.9 456.5,-482.9 456.5,-482.9 426.82,-432.27 406.83,-398.16"/>
<polygon fill="black" stroke="black" points="410.07,-396.77 401.99,-389.91 404.03,-400.31 410.07,-396.77"/>
<text text-anchor="middle" x="473.75" y="-467.4" font-family="Arial" font-size="10.00">Context</text>
</g>
<!-- designAgent&#45;&gt;ragSystem -->
<g id="edge20" class="edge">
<title>designAgent&#45;&gt;ragSystem</title>
<path fill="none" stroke="black" d="M180.67,-525.56C227.18,-497.4 304,-450.9 304,-450.9 304,-450.9 334.97,-420.6 359.52,-396.58"/>
<polygon fill="black" stroke="black" points="361.77,-399.29 366.47,-389.79 356.87,-394.28 361.77,-399.29"/>
<text text-anchor="middle" x="307.74" y="-467.4" font-family="Arial" font-size="10.00">Context</text>
</g>
<!-- testAgent&#45;&gt;cicdPipeline -->
<g id="edge26" class="edge">
<title>testAgent&#45;&gt;cicdPipeline</title>
<path fill="none" stroke="black" d="M725.13,-525.69C752.43,-495.93 802.97,-440.83 836.54,-404.23"/>
<polygon fill="black" stroke="black" points="839.06,-406.66 843.24,-396.92 833.91,-401.92 839.06,-406.66"/>
<text text-anchor="middle" x="797.33" y="-473.4" font-family="Arial" font-size="10.00">Test</text>
<text text-anchor="middle" x="797.33" y="-461.4" font-family="Arial" font-size="10.00">Cases</text>
</g>
<!-- testAgent&#45;&gt;ragSystem -->
<g id="edge21" class="edge">
<title>testAgent&#45;&gt;ragSystem</title>
<path fill="none" stroke="black" d="M657.95,-525.53C615.57,-506.99 560.5,-482.9 560.5,-482.9 560.5,-482.9 480.17,-428.96 429.46,-394.92"/>
<polygon fill="black" stroke="black" points="431.57,-392.12 421.31,-389.45 427.67,-397.93 431.57,-392.12"/>
<text text-anchor="middle" x="577.75" y="-467.4" font-family="Arial" font-size="10.00">Context</text>
</g>
<!-- securityEnforcement -->
<g id="node20" class="node">
<title>securityEnforcement</title>
<path fill="#d8bfd8" stroke="black" d="M920.35,-576.2C920.35,-576.2 833.65,-576.2 833.65,-576.2 827.65,-576.2 821.65,-570.2 821.65,-564.2 821.65,-564.2 821.65,-530.9 821.65,-530.9 821.65,-524.9 827.65,-518.9 833.65,-518.9 833.65,-518.9 920.35,-518.9 920.35,-518.9 926.35,-518.9 932.35,-524.9 932.35,-530.9 932.35,-530.9 932.35,-564.2 932.35,-564.2 932.35,-570.2 926.35,-576.2 920.35,-576.2"/>
<text text-anchor="middle" x="877" y="-550.4" font-family="Arial" font-size="12.00">Security</text>
<text text-anchor="middle" x="877" y="-536.15" font-family="Arial" font-size="12.00">Enforcement</text>
</g>
<!-- securityAgent&#45;&gt;securityEnforcement -->
<g id="edge27" class="edge">
<title>securityAgent&#45;&gt;securityEnforcement</title>
<path fill="none" stroke="black" d="M363.38,-576.51C391.44,-600.85 427,-631.7 427,-631.7 427,-631.7 661,-638.42 661,-638.42 661,-638.42 697,-638.42 697,-638.42 697,-638.42 786,-631.7 786,-631.7 786,-631.7 812.93,-606.8 837.49,-584.09"/>
<polygon fill="black" stroke="black" points="839.61,-586.9 844.57,-577.54 834.85,-581.76 839.61,-586.9"/>
<text text-anchor="middle" x="679" y="-654.2" font-family="Arial" font-size="10.00">Security</text>
<text text-anchor="middle" x="679" y="-642.2" font-family="Arial" font-size="10.00">Rules</text>
</g>
<!-- securityAgent&#45;&gt;ragSystem -->
<g id="edge22" class="edge">
<title>securityAgent&#45;&gt;ragSystem</title>
<path fill="none" stroke="black" d="M335.54,-518.82C340.66,-493.14 347.5,-458.9 347.5,-458.9 347.5,-458.9 362.82,-425.24 374.85,-398.83"/>
<polygon fill="black" stroke="black" points="378,-400.36 378.96,-389.81 371.63,-397.46 378,-400.36"/>
<text text-anchor="middle" x="364.75" y="-467.4" font-family="Arial" font-size="10.00">Context</text>
</g>
<!-- deploymentAuto -->
<g id="node18" class="node">
<title>deploymentAuto</title>
<path fill="#d8bfd8" stroke="black" d="M905.85,-242.1C905.85,-242.1 822.15,-242.1 822.15,-242.1 816.15,-242.1 810.15,-236.1 810.15,-230.1 810.15,-230.1 810.15,-196.8 810.15,-196.8 810.15,-190.8 816.15,-184.8 822.15,-184.8 822.15,-184.8 905.85,-184.8 905.85,-184.8 911.85,-184.8 917.85,-190.8 917.85,-196.8 917.85,-196.8 917.85,-230.1 917.85,-230.1 917.85,-236.1 911.85,-242.1 905.85,-242.1"/>
<text text-anchor="middle" x="864" y="-216.3" font-family="Arial" font-size="12.00">Deployment</text>
<text text-anchor="middle" x="864" y="-202.05" font-family="Arial" font-size="12.00">Automation</text>
</g>
<!-- cicdPipeline&#45;&gt;deploymentAuto -->
<g id="edge28" class="edge">
<title>cicdPipeline&#45;&gt;deploymentAuto</title>
<path fill="none" stroke="black" d="M868.89,-337.65C867.95,-314.08 866.61,-280.16 865.56,-253.88"/>
<polygon fill="black" stroke="black" points="869.06,-253.77 865.17,-243.92 862.07,-254.05 869.06,-253.77"/>
<text text-anchor="middle" x="882.73" y="-286.6" font-family="Arial" font-size="10.00">Deploy</text>
</g>
<!-- github -->
<g id="node25" class="node">
<title>github</title>
<path fill="#dcdcdc" stroke="black" d="M1282.1,-73.3C1282.1,-73.3 1175.9,-73.3 1175.9,-73.3 1169.9,-73.3 1163.9,-67.3 1163.9,-61.3 1163.9,-61.3 1163.9,-28 1163.9,-28 1163.9,-22 1169.9,-16 1175.9,-16 1175.9,-16 1282.1,-16 1282.1,-16 1288.1,-16 1294.1,-22 1294.1,-28 1294.1,-28 1294.1,-61.3 1294.1,-61.3 1294.1,-67.3 1288.1,-73.3 1282.1,-73.3"/>
<text text-anchor="middle" x="1229" y="-47.5" font-family="Arial" font-size="12.00">GitHub / Version</text>
<text text-anchor="middle" x="1229" y="-33.25" font-family="Arial" font-size="12.00">Control</text>
</g>
<!-- cicdPipeline&#45;&gt;github -->
<g id="edge33" class="edge">
<title>cicdPipeline&#45;&gt;github</title>
<path fill="none" stroke="black" d="M900.41,-337.68C966.63,-276.54 1118,-136.8 1118,-136.8 1118,-136.8 1135,-128.8 1135,-128.8 1135,-128.8 1163.36,-103.72 1188.92,-81.1"/>
<polygon fill="black" stroke="black" points="1191.13,-83.82 1196.3,-74.57 1186.5,-78.58 1191.13,-83.82"/>
<text text-anchor="middle" x="1094.37" y="-215.95" font-family="Arial" font-size="10.00">Code</text>
<text text-anchor="middle" x="1094.37" y="-203.95" font-family="Arial" font-size="10.00">Commits</text>
</g>
<!-- selfHealing -->
<g id="node19" class="node">
<title>selfHealing</title>
<path fill="#d8bfd8" stroke="black" d="M905.98,-73.3C905.98,-73.3 820.02,-73.3 820.02,-73.3 814.02,-73.3 808.02,-67.3 808.02,-61.3 808.02,-61.3 808.02,-28 808.02,-28 808.02,-22 814.02,-16 820.02,-16 820.02,-16 905.98,-16 905.98,-16 911.98,-16 917.98,-22 917.98,-28 917.98,-28 917.98,-61.3 917.98,-61.3 917.98,-67.3 911.98,-73.3 905.98,-73.3"/>
<text text-anchor="middle" x="863" y="-47.5" font-family="Arial" font-size="12.00">Self&#45;Healing</text>
<text text-anchor="middle" x="863" y="-33.25" font-family="Arial" font-size="12.00">Debugger</text>
</g>
<!-- deploymentAuto&#45;&gt;selfHealing -->
<g id="edge30" class="edge">
<title>deploymentAuto&#45;&gt;selfHealing</title>
<path fill="none" stroke="black" d="M862.57,-184.35C861.69,-167.3 860.75,-148.8 860.75,-148.8 860.75,-148.8 860.75,-136.8 860.75,-136.8 860.75,-136.8 861.42,-109.6 862.03,-84.91"/>
<polygon fill="black" stroke="black" points="865.53,-85.09 862.28,-75.01 858.53,-84.92 865.53,-85.09"/>
<text text-anchor="middle" x="876.88" y="-139.3" font-family="Arial" font-size="10.00">Monitor</text>
</g>
<!-- cloudProviders -->
<g id="node26" class="node">
<title>cloudProviders</title>
<path fill="#dcdcdc" stroke="black" d="M1093.72,-66.17C1093.72,-66.17 988.27,-66.17 988.27,-66.17 982.27,-66.17 976.27,-60.17 976.27,-54.17 976.27,-54.17 976.27,-35.12 976.27,-35.12 976.27,-29.12 982.27,-23.12 988.27,-23.12 988.27,-23.12 1093.72,-23.12 1093.72,-23.12 1099.72,-23.12 1105.72,-29.12 1105.72,-35.12 1105.72,-35.12 1105.72,-54.17 1105.72,-54.17 1105.72,-60.17 1099.72,-66.17 1093.72,-66.17"/>
<text text-anchor="middle" x="1041" y="-40.38" font-family="Arial" font-size="12.00">Cloud Providers</text>
</g>
<!-- deploymentAuto&#45;&gt;cloudProviders -->
<g id="edge34" class="edge">
<title>deploymentAuto&#45;&gt;cloudProviders</title>
<path fill="none" stroke="black" d="M893.97,-184.6C920.15,-160.26 954,-128.8 954,-128.8 954,-128.8 985.7,-98.5 1010.83,-74.48"/>
<polygon fill="black" stroke="black" points="1013.14,-77.12 1017.95,-67.68 1008.3,-72.06 1013.14,-77.12"/>
<text text-anchor="middle" x="960.01" y="-139.3" font-family="Arial" font-size="10.00">Deploy</text>
</g>
<!-- selfHealing&#45;&gt;orchestrator -->
<g id="edge31" class="edge">
<title>selfHealing&#45;&gt;orchestrator</title>
<path fill="none" stroke="black" d="M807.53,-55.56C636.53,-86.11 129,-176.8 129,-176.8 129,-176.8 0,-212.45 0,-212.45 0,-548.55 0,-548.55 0,-548.55 0,-548.55 66,-631.7 66,-631.7 66,-631.7 257,-663.7 257,-663.7 257,-663.7 831.16,-706.49 1037.91,-721.9"/>
<polygon fill="black" stroke="black" points="1037.5,-725.38 1047.73,-722.63 1038.02,-718.4 1037.5,-725.38"/>
<text text-anchor="middle" x="27.38" y="-369.25" font-family="Arial" font-size="10.00">Remediation</text>
<text text-anchor="middle" x="27.38" y="-357.25" font-family="Arial" font-size="10.00">Tasks</text>
</g>
<!-- securityEnforcement&#45;&gt;cicdPipeline -->
<g id="edge29" class="edge">
<title>securityEnforcement&#45;&gt;cicdPipeline</title>
<path fill="none" stroke="black" d="M875.91,-518.61C874.73,-488.65 872.86,-440.84 871.54,-407.09"/>
<polygon fill="black" stroke="black" points="875.05,-407.15 871.16,-397.3 868.05,-407.43 875.05,-407.15"/>
<text text-anchor="middle" x="892.33" y="-473.4" font-family="Arial" font-size="10.00">Security</text>
<text text-anchor="middle" x="892.33" y="-461.4" font-family="Arial" font-size="10.00">Gates</text>
</g>
<!-- vectorDB -->
<g id="node21" class="node">
<title>vectorDB</title>
<path fill="#f0e68c" stroke="black" d="M324.85,-242.1C324.85,-242.1 217.15,-242.1 217.15,-242.1 211.15,-242.1 205.15,-236.1 205.15,-230.1 205.15,-230.1 205.15,-196.8 205.15,-196.8 205.15,-190.8 211.15,-184.8 217.15,-184.8 217.15,-184.8 324.85,-184.8 324.85,-184.8 330.85,-184.8 336.85,-190.8 336.85,-196.8 336.85,-196.8 336.85,-230.1 336.85,-230.1 336.85,-236.1 330.85,-242.1 324.85,-242.1"/>
<text text-anchor="middle" x="271" y="-216.3" font-family="Arial" font-size="12.00">Vector Database</text>
<text text-anchor="middle" x="271" y="-202.05" font-family="Arial" font-size="12.00">(ChromaDB)</text>
</g>
<!-- ragSystem&#45;&gt;vectorDB -->
<g id="edge23" class="edge">
<title>ragSystem&#45;&gt;vectorDB</title>
<path fill="none" stroke="black" d="M372.84,-345.03C354.02,-320.9 322.58,-280.59 299.61,-251.13"/>
<polygon fill="black" stroke="black" points="302.61,-249.29 293.7,-243.56 297.09,-253.6 302.61,-249.29"/>
<text text-anchor="middle" x="353.94" y="-292.6" font-family="Arial" font-size="10.00">Vector</text>
<text text-anchor="middle" x="353.94" y="-280.6" font-family="Arial" font-size="10.00">Queries</text>
</g>
<!-- docCrawler -->
<g id="node23" class="node">
<title>docCrawler</title>
<path fill="#f0e68c" stroke="black" d="M263.1,-395.4C263.1,-395.4 162.9,-395.4 162.9,-395.4 156.9,-395.4 150.9,-389.4 150.9,-383.4 150.9,-383.4 150.9,-350.1 150.9,-350.1 150.9,-344.1 156.9,-338.1 162.9,-338.1 162.9,-338.1 263.1,-338.1 263.1,-338.1 269.1,-338.1 275.1,-344.1 275.1,-350.1 275.1,-350.1 275.1,-383.4 275.1,-383.4 275.1,-389.4 269.1,-395.4 263.1,-395.4"/>
<text text-anchor="middle" x="213" y="-369.6" font-family="Arial" font-size="12.00">Documentation</text>
<text text-anchor="middle" x="213" y="-355.35" font-family="Arial" font-size="12.00">Crawler</text>
</g>
<!-- docCrawler&#45;&gt;vectorDB -->
<g id="edge24" class="edge">
<title>docCrawler&#45;&gt;vectorDB</title>
<path fill="none" stroke="black" d="M223.77,-337.65C232.93,-313.76 246.16,-279.24 256.29,-252.82"/>
<polygon fill="black" stroke="black" points="259.43,-254.41 259.74,-243.82 252.89,-251.9 259.43,-254.41"/>
<text text-anchor="middle" x="270.6" y="-292.6" font-family="Arial" font-size="10.00">Index</text>
<text text-anchor="middle" x="270.6" y="-280.6" font-family="Arial" font-size="10.00">Documents</text>
</g>
</g>
</svg>
